<?xml version="1.0" encoding="UTF-8"?>
<!-- Generated by Pixelmator Pro 3.3.11 -->
<svg width="444" height="475" viewBox="0 0 444 475" xmlns="http://www.w3.org/2000/svg">
    <path id="Path" fill="#000000" stroke="none" d="M 221.149994 -0.529999 C 277.170013 -0.529999 333.179993 -0.600006 389.200012 -0.440002 C 395.809998 -0.420013 402.51001 0.359985 409.01001 1.579987 C 415.700012 2.829987 418.040009 6.529999 417.049988 13.100006 C 412.769989 41.679993 414.040009 70.269989 416.920013 98.850006 C 417.929993 108.850006 411.959991 114.149994 402.230011 111.850006 C 398.570007 110.98999 396.600006 109.040009 395.829987 105.209991 C 393.809998 95.100006 391.850006 84.949982 389.029999 75.049988 C 387.179993 68.549988 384.359985 62.209991 381.160004 56.230011 C 373.779999 42.429993 362.160004 33.380005 347.029999 29.779999 C 323.399994 24.160004 299.470001 23.679993 275.619995 28.48999 C 261.040009 31.429993 255.029999 38.899994 254.089996 53.73999 C 253.940002 56.070007 253.839996 58.399994 253.839996 60.730011 C 253.869995 154.910004 253.860001 249.079987 254.039993 343.259979 C 254.059998 351.559998 254.919998 359.889984 255.979996 368.130005 C 257.450012 379.589996 264.100006 387.410004 274.850006 391.23999 C 288.679993 396.169983 302.5 398.440002 317.25 393.369995 C 340.410004 385.410004 362.649994 376.089996 381.600006 360.100006 C 406.209991 339.350006 419.100006 313.269989 417.459991 280.809998 C 416.850006 268.699982 415.690002 256.549988 413.769989 244.579987 C 409.559998 218.350006 393.130005 200.940002 371.190002 187.799988 C 349.119995 174.589996 324.929993 167.640015 299.790009 163.470001 C 297.160004 163.029999 294.51001 162.730011 291.880005 162.329987 C 285.959991 161.450012 283.630005 158.910004 284.25 154 C 284.970001 148.26001 289.369995 144.230011 294.410004 144.549988 C 308.209991 145.420013 322.019989 147.109985 335.809998 146.899994 C 363.799988 146.480011 391.769989 145.029999 419.75 143.98999 C 424.410004 143.820007 429.070007 143.429993 433.730011 143.350006 C 438.570007 143.26001 441.339996 145.640015 442.049988 150.149994 C 442.73999 154.559998 440.170013 158.059998 435.869995 159.600006 C 430.75 161.440002 425.359985 163.100006 420.869995 166.040009 C 412.679993 171.390015 410.869995 179.420013 414.880005 188.350006 C 415.76001 190.320007 416.820007 192.230011 418.01001 194.019989 C 433.51001 217.25 442.549988 242.569992 443.809998 270.649994 C 445.179993 301.160004 443.359985 331.279999 434 360.559998 C 418.570007 408.829987 385.220001 439.660004 338.73999 457.419983 C 307.570007 469.329987 275.019989 473.789978 241.839996 474.779999 C 200.529999 476.009979 159.960007 472.22998 120.980003 457.410004 C 82.949997 442.949982 50.169998 421.160004 28.6 385.940002 C 0.78 340.5 -7.6 291.459991 7.26 239.729996 C 11.03 226.599991 18.040001 214.380005 23.780001 201.839996 C 26.059999 196.859985 29.040001 192.190002 31.530001 187.299988 C 36.75 177.070007 34.470001 171.670013 23.52 167.970001 C 17.799999 166.029999 15.24 157.109985 19.43 152.809998 C 20.440001 151.769989 22.809999 151.329987 24.360001 151.609985 C 58.490002 157.910004 92.449997 154.190002 126.400002 150.040009 C 129.210007 149.700012 132.029999 149.440002 134.839996 149.079987 C 140.229996 148.380005 142.789993 150.040009 143.929993 155.040009 C 145.339996 161.230011 143.100006 166.160004 138.330002 167.670013 C 125.970001 171.600006 113.339996 174.869995 101.349998 179.709991 C 76.160004 189.859985 54.650002 205.130005 41.790001 229.799988 C 25.290001 261.429993 23.01 294.459991 36.040001 327.820007 C 43.630001 347.23999 58.389999 361.139984 75.339996 372.639984 C 92.769997 384.470001 111.989998 392.98999 132.619995 396.329987 C 145.889999 398.47998 159.509995 394.73999 171 386.769989 C 181.220001 379.679993 182.919998 368.369995 183.960007 357.130005 C 184.660004 349.509979 184.910004 341.820007 184.919998 334.160004 C 184.979996 243.319992 184.970001 152.470001 184.919998 61.630005 C 184.919998 57.639984 184.600006 53.630005 184.089996 49.679993 C 182.529999 37.670013 177.080002 31.410004 165.350006 28.589996 C 149.789993 24.839996 133.940002 24.98999 118.110001 25.959991 C 111.309998 26.380005 104.519997 27.279999 97.779999 28.369995 C 78.540001 31.48999 64.25 41.889984 57.029999 59.880005 C 51.549999 73.540009 48.02 88.01001 44.099998 102.25 C 41.970001 110 37.220001 113.190002 29.450001 110.799988 C 24.120001 109.160004 22.809999 107.119995 23.360001 101.649994 C 26.33 72.230011 27.290001 42.799988 23.32 13.380005 C 22.559999 7.730011 24.620001 3.869995 30.459999 2.529999 C 37.540001 0.910004 44.880001 -0.390015 52.119999 -0.420013 C 108.470001 -0.649994 164.820007 -0.549988 221.169998 -0.549988 L 221.149994 -0.529999 Z"/>
</svg>
